<svg viewBox="0 0 185 30" xmlns="http://www.w3.org/2000/svg" xmlns:xlink="http://www.w3.org/1999/xlink" width="185.000244" height="30.000000" fill="none" customFrame="#000000">
	<g id="categories">
		<path id="Browse Categories" d="M33.0158 15.784L34.9518 15.784C35.6558 15.784 36.2744 15.6827 36.8078 15.48C37.3518 15.2773 37.7731 14.984 38.0718 14.6C38.3811 14.2053 38.5358 13.7307 38.5358 13.176C38.5358 12.536 38.3811 12.008 38.0718 11.592C37.7731 11.176 37.3518 10.8667 36.8078 10.664C36.2744 10.4613 35.6558 10.36 34.9518 10.36L31.5758 10.36L31.5758 21.56L35.1438 21.56C35.9331 21.56 36.6264 21.448 37.2238 21.224C37.8318 20.9893 38.3064 20.632 38.6478 20.152C38.9998 19.672 39.1758 19.064 39.1758 18.328C39.1758 17.7947 39.0691 17.336 38.8558 16.952C38.6424 16.568 38.3438 16.2533 37.9598 16.008C37.5864 15.7627 37.1598 15.5813 36.6798 15.464C36.1998 15.3467 35.6878 15.288 35.1438 15.288L33.0158 15.288L33.0158 16.328L35.0318 16.328C35.3518 16.328 35.6451 16.3653 35.9118 16.44C36.1784 16.504 36.4078 16.616 36.5998 16.776C36.8024 16.9253 36.9571 17.1173 37.0638 17.352C37.1811 17.576 37.2398 17.8373 37.2398 18.136C37.2398 18.552 37.1438 18.8987 36.9518 19.176C36.7598 19.4533 36.4984 19.6613 36.1678 19.8C35.8371 19.9387 35.4584 20.008 35.0318 20.008L33.4638 20.008L33.4638 11.912L34.8238 11.912C35.3464 11.912 35.7731 12.04 36.1038 12.296C36.4344 12.552 36.5998 12.9147 36.5998 13.384C36.5998 13.6933 36.5251 13.96 36.3758 14.184C36.2264 14.3973 36.0184 14.5627 35.7518 14.68C35.4851 14.7973 35.1758 14.856 34.8238 14.856L33.0158 14.856L33.0158 15.784ZM42.7375 14.2L41.0255 14.2L41.0255 21.56L42.7375 21.56L42.7375 14.2ZM44.9295 16.04L45.7615 14.584C45.6015 14.3813 45.4042 14.2427 45.1695 14.168C44.9348 14.0827 44.6842 14.04 44.4175 14.04C44.0442 14.04 43.6815 14.1733 43.3295 14.44C42.9882 14.7067 42.7055 15.0693 42.4815 15.528C42.2682 15.976 42.1615 16.4933 42.1615 17.08L42.7375 17.416C42.7375 17.064 42.7748 16.76 42.8495 16.504C42.9348 16.2373 43.0682 16.0293 43.2495 15.88C43.4308 15.7307 43.6655 15.656 43.9535 15.656C44.1668 15.656 44.3428 15.688 44.4815 15.752C44.6202 15.816 44.7695 15.912 44.9295 16.04ZM46.153 17.88C46.153 18.6267 46.3237 19.2933 46.665 19.88C47.017 20.456 47.4917 20.9093 48.089 21.24C48.6863 21.56 49.3637 21.72 50.121 21.72C50.8783 21.72 51.5503 21.56 52.137 21.24C52.7343 20.9093 53.209 20.456 53.561 19.88C53.913 19.2933 54.089 18.6267 54.089 17.88C54.089 17.1227 53.913 16.456 53.561 15.88C53.209 15.304 52.7343 14.856 52.137 14.536C51.5503 14.2053 50.8783 14.04 50.121 14.04C49.3637 14.04 48.6863 14.2053 48.089 14.536C47.4917 14.856 47.017 15.304 46.665 15.88C46.3237 16.456 46.153 17.1227 46.153 17.88ZM47.929 17.88C47.929 17.4213 48.025 17.016 48.217 16.664C48.409 16.312 48.6703 16.04 49.001 15.848C49.3317 15.656 49.705 15.56 50.121 15.56C50.5263 15.56 50.8943 15.656 51.225 15.848C51.5663 16.04 51.833 16.312 52.025 16.664C52.217 17.016 52.313 17.4213 52.313 17.88C52.313 18.3387 52.217 18.744 52.025 19.096C51.833 19.4373 51.5663 19.7093 51.225 19.912C50.8943 20.104 50.5263 20.2 50.121 20.2C49.705 20.2 49.3317 20.104 49.001 19.912C48.6703 19.7093 48.409 19.4373 48.217 19.096C48.025 18.744 47.929 18.3387 47.929 17.88ZM54.3903 14.2L57.8303 22.088L60.0383 17.112L62.3423 22.088L65.7823 14.2L63.9103 14.2L62.1823 18.6L60.0223 13.64L57.9903 18.584L56.2623 14.2L54.3903 14.2ZM67.2209 19.144L66.2129 20.152C66.4262 20.4293 66.6875 20.696 66.9969 20.952C67.3169 21.1973 67.6849 21.4 68.1009 21.56C68.5275 21.7093 68.9915 21.784 69.4929 21.784C70.3036 21.784 70.9436 21.576 71.4129 21.16C71.8929 20.7333 72.1329 20.1733 72.1329 19.48C72.1329 19.032 72.0262 18.6693 71.8129 18.392C71.6102 18.1147 71.3382 17.88 70.9969 17.688C70.6555 17.496 70.2822 17.32 69.8769 17.16C69.5782 17.0427 69.3062 16.9307 69.0609 16.824C68.8262 16.7173 68.6342 16.6 68.4849 16.472C68.3462 16.3333 68.2769 16.1787 68.2769 16.008C68.2769 15.8053 68.3569 15.6507 68.5169 15.544C68.6769 15.4373 68.8795 15.384 69.1249 15.384C69.4875 15.384 69.8396 15.4747 70.1809 15.656C70.5222 15.8373 70.8156 16.072 71.0609 16.36L72.0209 15.336C71.8182 15.0907 71.5729 14.872 71.2849 14.68C70.9969 14.488 70.6716 14.3333 70.3089 14.216C69.9569 14.0987 69.5782 14.04 69.1729 14.04C68.7249 14.04 68.3036 14.1147 67.9089 14.264C67.5249 14.4027 67.2155 14.6213 66.9809 14.92C66.7569 15.2187 66.6449 15.592 66.6449 16.04C66.6449 16.4773 66.7462 16.84 66.9489 17.128C67.1622 17.416 67.4289 17.6507 67.7489 17.832C68.0796 18.0027 68.4102 18.152 68.7409 18.28C69.0715 18.3973 69.3596 18.5147 69.6049 18.632C69.8502 18.7387 70.0422 18.872 70.1809 19.032C70.3195 19.1813 70.3889 19.3627 70.3889 19.576C70.3889 19.8213 70.2982 20.0133 70.1169 20.152C69.9462 20.2907 69.7062 20.36 69.3969 20.36C69.1516 20.36 68.9062 20.3173 68.6609 20.232C68.4156 20.136 68.1702 19.9973 67.9249 19.816C67.6902 19.624 67.4556 19.4 67.2209 19.144ZM76.8661 21.72C77.7195 21.72 78.4501 21.5547 79.0581 21.224C79.6661 20.8933 80.1621 20.3973 80.5461 19.736L79.0581 19.128C78.8235 19.5227 78.5301 19.816 78.1781 20.008C77.8261 20.2 77.4155 20.296 76.9461 20.296C76.4981 20.296 76.1141 20.2 75.7941 20.008C75.4848 19.816 75.2501 19.5387 75.0901 19.176C74.9301 18.8027 74.8501 18.3493 74.8501 17.816C74.8608 17.2827 74.9461 16.8347 75.1061 16.472C75.2661 16.1093 75.5008 15.832 75.8101 15.64C76.1195 15.448 76.4928 15.352 76.9301 15.352C77.2928 15.352 77.6075 15.432 77.8741 15.592C78.1515 15.752 78.3648 15.976 78.5141 16.264C78.6741 16.552 78.7541 16.8933 78.7541 17.288C78.7541 17.3627 78.7328 17.4587 78.6901 17.576C78.6581 17.6827 78.6261 17.768 78.5941 17.832L79.1221 17.096L74.1301 17.096L74.1301 18.28L80.5941 18.28C80.6048 18.2373 80.6101 18.168 80.6101 18.072C80.6208 17.976 80.6261 17.8853 80.6261 17.8C80.6261 17.0107 80.4768 16.3387 80.1781 15.784C79.8901 15.2187 79.4741 14.7867 78.9301 14.488C78.3861 14.1893 77.7248 14.04 76.9461 14.04C76.1675 14.04 75.4901 14.2 74.9141 14.52C74.3381 14.8293 73.8901 15.272 73.5701 15.848C73.2608 16.424 73.1061 17.1013 73.1061 17.88C73.1061 18.648 73.2608 19.32 73.5701 19.896C73.8795 20.472 74.3168 20.92 74.8821 21.24C75.4581 21.56 76.1195 21.72 76.8661 21.72ZM88.6084 15.96C88.6084 15.16 88.7844 14.4667 89.1364 13.88C89.4991 13.2827 89.9684 12.824 90.5444 12.504C91.1311 12.1733 91.7657 12.008 92.4484 12.008C92.9817 12.008 93.4617 12.0773 93.8884 12.216C94.315 12.3547 94.6991 12.5467 95.0404 12.792C95.3924 13.0267 95.6964 13.2933 95.9524 13.592L95.9524 11.352C95.483 10.968 94.9764 10.6747 94.4324 10.472C93.8884 10.2693 93.2057 10.168 92.3844 10.168C91.563 10.168 90.7951 10.3067 90.0804 10.584C89.3764 10.8613 88.763 11.2613 88.2404 11.784C87.7177 12.3067 87.3071 12.9253 87.0084 13.64C86.7204 14.344 86.5764 15.1173 86.5764 15.96C86.5764 16.8027 86.7204 17.5813 87.0084 18.296C87.3071 19 87.7177 19.6133 88.2404 20.136C88.763 20.6587 89.3764 21.0587 90.0804 21.336C90.7951 21.6133 91.563 21.752 92.3844 21.752C93.2057 21.752 93.8884 21.6507 94.4324 21.448C94.9764 21.2453 95.483 20.952 95.9524 20.568L95.9524 18.328C95.6964 18.6267 95.3924 18.8987 95.0404 19.144C94.6991 19.3787 94.315 19.5653 93.8884 19.704C93.4617 19.8427 92.9817 19.912 92.4484 19.912C91.7657 19.912 91.1311 19.752 90.5444 19.432C89.9684 19.1013 89.4991 18.6373 89.1364 18.04C88.7844 17.4427 88.6084 16.7493 88.6084 15.96ZM99.2229 19.272C99.2229 19.0373 99.2762 18.84 99.3829 18.68C99.5002 18.52 99.6709 18.3973 99.8949 18.312C100.119 18.216 100.412 18.168 100.775 18.168C101.191 18.168 101.586 18.2213 101.959 18.328C102.332 18.4347 102.684 18.6053 103.015 18.84L103.015 17.96C102.919 17.8427 102.754 17.7147 102.519 17.576C102.284 17.4267 101.986 17.2987 101.623 17.192C101.271 17.0853 100.85 17.032 100.359 17.032C99.4416 17.032 98.7322 17.2453 98.2309 17.672C97.7296 18.088 97.4789 18.6533 97.4789 19.368C97.4789 19.8693 97.5962 20.296 97.8309 20.648C98.0656 21 98.3802 21.2667 98.7749 21.448C99.1695 21.6293 99.5962 21.72 100.055 21.72C100.482 21.72 100.898 21.6453 101.303 21.496C101.719 21.336 102.06 21.1013 102.327 20.792C102.604 20.472 102.743 20.0773 102.743 19.608L102.487 18.648C102.487 19.0107 102.396 19.3307 102.215 19.608C102.044 19.8747 101.815 20.0773 101.527 20.216C101.25 20.3547 100.94 20.424 100.599 20.424C100.332 20.424 100.092 20.3813 99.8789 20.296C99.6762 20.2107 99.5162 20.0827 99.3989 19.912C99.2815 19.7307 99.2229 19.5173 99.2229 19.272ZM98.6789 16.12C98.7856 16.0453 98.9455 15.9547 99.1589 15.848C99.3829 15.7307 99.6442 15.6347 99.9429 15.56C100.252 15.4747 100.578 15.432 100.919 15.432C101.143 15.432 101.351 15.4533 101.543 15.496C101.735 15.5387 101.9 15.608 102.039 15.704C102.178 15.8 102.284 15.9227 102.359 16.072C102.444 16.2213 102.487 16.4133 102.487 16.648L102.487 21.56L104.183 21.56L104.183 16.312C104.183 15.8213 104.05 15.4107 103.783 15.08C103.516 14.7387 103.148 14.4773 102.679 14.296C102.22 14.1147 101.687 14.024 101.079 14.024C100.396 14.024 99.7882 14.12 99.2549 14.312C98.7322 14.504 98.3055 14.7013 97.9749 14.904L98.6789 16.12ZM105.173 14.2L105.173 15.72L109.349 15.72L109.349 14.2L105.173 14.2ZM106.405 11.64L106.405 21.56L108.117 21.56L108.117 11.64L106.405 11.64ZM113.741 21.72C114.594 21.72 115.325 21.5547 115.933 21.224C116.541 20.8933 117.037 20.3973 117.421 19.736L115.933 19.128C115.698 19.5227 115.405 19.816 115.053 20.008C114.701 20.2 114.29 20.296 113.821 20.296C113.373 20.296 112.989 20.2 112.669 20.008C112.36 19.816 112.125 19.5387 111.965 19.176C111.805 18.8027 111.725 18.3493 111.725 17.816C111.736 17.2827 111.821 16.8347 111.981 16.472C112.141 16.1093 112.376 15.832 112.685 15.64C112.994 15.448 113.368 15.352 113.805 15.352C114.168 15.352 114.482 15.432 114.749 15.592C115.026 15.752 115.24 15.976 115.389 16.264C115.549 16.552 115.629 16.8933 115.629 17.288C115.629 17.3627 115.608 17.4587 115.565 17.576C115.533 17.6827 115.501 17.768 115.469 17.832L115.997 17.096L111.005 17.096L111.005 18.28L117.469 18.28C117.48 18.2373 117.485 18.168 117.485 18.072C117.496 17.976 117.501 17.8853 117.501 17.8C117.501 17.0107 117.352 16.3387 117.053 15.784C116.765 15.2187 116.349 14.7867 115.805 14.488C115.261 14.1893 114.6 14.04 113.821 14.04C113.042 14.04 112.365 14.2 111.789 14.52C111.213 14.8293 110.765 15.272 110.445 15.848C110.136 16.424 109.981 17.1013 109.981 17.88C109.981 18.648 110.136 19.32 110.445 19.896C110.754 20.472 111.192 20.92 111.757 21.24C112.333 21.56 112.994 21.72 113.741 21.72ZM118.735 22.056C118.756 22.696 118.916 23.2613 119.215 23.752C119.524 24.2427 119.961 24.6213 120.527 24.888C121.092 25.1653 121.775 25.304 122.575 25.304C123.247 25.304 123.871 25.16 124.447 24.872C125.023 24.5947 125.487 24.168 125.839 23.592C126.201 23.016 126.383 22.2853 126.383 21.4L126.383 14.2L124.687 14.2L124.687 21.4C124.687 21.9547 124.58 22.408 124.367 22.76C124.164 23.112 123.897 23.3733 123.567 23.544C123.236 23.7147 122.889 23.8 122.527 23.8C122.121 23.8 121.764 23.7253 121.455 23.576C121.145 23.4267 120.9 23.2187 120.719 22.952C120.548 22.6853 120.457 22.3867 120.447 22.056L118.735 22.056ZM118.591 17.848C118.591 18.648 118.756 19.3307 119.087 19.896C119.417 20.4613 119.855 20.8933 120.399 21.192C120.953 21.4907 121.545 21.64 122.175 21.64C122.793 21.64 123.332 21.4907 123.791 21.192C124.26 20.8827 124.628 20.4453 124.895 19.88C125.172 19.3147 125.311 18.6373 125.311 17.848C125.311 17.048 125.172 16.3653 124.895 15.8C124.628 15.2347 124.26 14.8027 123.791 14.504C123.332 14.1947 122.793 14.04 122.175 14.04C121.545 14.04 120.953 14.1893 120.399 14.488C119.855 14.7867 119.417 15.2187 119.087 15.784C118.756 16.3387 118.591 17.0267 118.591 17.848ZM120.383 17.848C120.383 17.3467 120.484 16.9253 120.687 16.584C120.889 16.2427 121.156 15.9867 121.487 15.816C121.828 15.6347 122.196 15.544 122.591 15.544C122.836 15.544 123.081 15.592 123.327 15.688C123.583 15.784 123.812 15.9333 124.015 16.136C124.217 16.328 124.377 16.568 124.495 16.856C124.623 17.1333 124.687 17.464 124.687 17.848C124.687 18.3387 124.58 18.76 124.367 19.112C124.164 19.4533 123.897 19.7093 123.567 19.88C123.247 20.0507 122.921 20.136 122.591 20.136C122.196 20.136 121.828 20.0507 121.487 19.88C121.156 19.6987 120.889 19.4373 120.687 19.096C120.484 18.7547 120.383 18.3387 120.383 17.848ZM127.966 17.88C127.966 18.6267 128.136 19.2933 128.478 19.88C128.829 20.456 129.304 20.9093 129.902 21.24C130.499 21.56 131.176 21.72 131.934 21.72C132.691 21.72 133.363 21.56 133.95 21.24C134.547 20.9093 135.022 20.456 135.374 19.88C135.726 19.2933 135.902 18.6267 135.902 17.88C135.902 17.1227 135.726 16.456 135.374 15.88C135.022 15.304 134.547 14.856 133.95 14.536C133.363 14.2053 132.691 14.04 131.934 14.04C131.176 14.04 130.499 14.2053 129.902 14.536C129.304 14.856 128.829 15.304 128.478 15.88C128.136 16.456 127.966 17.1227 127.966 17.88ZM129.742 17.88C129.742 17.4213 129.838 17.016 130.03 16.664C130.222 16.312 130.483 16.04 130.814 15.848C131.144 15.656 131.518 15.56 131.934 15.56C132.339 15.56 132.707 15.656 133.038 15.848C133.379 16.04 133.646 16.312 133.838 16.664C134.03 17.016 134.126 17.4213 134.126 17.88C134.126 18.3387 134.03 18.744 133.838 19.096C133.646 19.4373 133.379 19.7093 133.038 19.912C132.707 20.104 132.339 20.2 131.934 20.2C131.518 20.2 131.144 20.104 130.814 19.912C130.483 19.7093 130.222 19.4373 130.03 19.096C129.838 18.744 129.742 18.3387 129.742 17.88ZM139.253 14.2L137.541 14.2L137.541 21.56L139.253 21.56L139.253 14.2ZM141.445 16.04L142.277 14.584C142.117 14.3813 141.92 14.2427 141.685 14.168C141.45 14.0827 141.2 14.04 140.933 14.04C140.56 14.04 140.197 14.1733 139.845 14.44C139.504 14.7067 139.221 15.0693 138.997 15.528C138.784 15.976 138.677 16.4933 138.677 17.08L139.253 17.416C139.253 17.064 139.29 16.76 139.365 16.504C139.45 16.2373 139.584 16.0293 139.765 15.88C139.946 15.7307 140.181 15.656 140.469 15.656C140.682 15.656 140.858 15.688 140.997 15.752C141.136 15.816 141.285 15.912 141.445 16.04ZM143.399 11.272C143.399 11.56 143.506 11.8107 143.719 12.024C143.943 12.2267 144.199 12.328 144.487 12.328C144.796 12.328 145.052 12.2267 145.255 12.024C145.468 11.8107 145.575 11.56 145.575 11.272C145.575 10.9733 145.468 10.7227 145.255 10.52C145.052 10.3173 144.796 10.216 144.487 10.216C144.199 10.216 143.943 10.3173 143.719 10.52C143.506 10.7227 143.399 10.9733 143.399 11.272ZM143.639 14.2L143.639 21.56L145.335 21.56L145.335 14.2L143.639 14.2ZM150.913 21.72C151.766 21.72 152.497 21.5547 153.105 21.224C153.713 20.8933 154.209 20.3973 154.593 19.736L153.105 19.128C152.87 19.5227 152.577 19.816 152.225 20.008C151.873 20.2 151.462 20.296 150.993 20.296C150.545 20.296 150.161 20.2 149.841 20.008C149.532 19.816 149.297 19.5387 149.137 19.176C148.977 18.8027 148.897 18.3493 148.897 17.816C148.908 17.2827 148.993 16.8347 149.153 16.472C149.313 16.1093 149.548 15.832 149.857 15.64C150.166 15.448 150.54 15.352 150.977 15.352C151.34 15.352 151.654 15.432 151.921 15.592C152.198 15.752 152.412 15.976 152.561 16.264C152.721 16.552 152.801 16.8933 152.801 17.288C152.801 17.3627 152.78 17.4587 152.737 17.576C152.705 17.6827 152.673 17.768 152.641 17.832L153.169 17.096L148.177 17.096L148.177 18.28L154.641 18.28C154.652 18.2373 154.657 18.168 154.657 18.072C154.668 17.976 154.673 17.8853 154.673 17.8C154.673 17.0107 154.524 16.3387 154.225 15.784C153.937 15.2187 153.521 14.7867 152.977 14.488C152.433 14.1893 151.772 14.04 150.993 14.04C150.214 14.04 149.537 14.2 148.961 14.52C148.385 14.8293 147.937 15.272 147.617 15.848C147.308 16.424 147.153 17.1013 147.153 17.88C147.153 18.648 147.308 19.32 147.617 19.896C147.926 20.472 148.364 20.92 148.929 21.24C149.505 21.56 150.166 21.72 150.913 21.72ZM156.658 19.144L155.65 20.152C155.864 20.4293 156.125 20.696 156.434 20.952C156.754 21.1973 157.122 21.4 157.538 21.56C157.965 21.7093 158.429 21.784 158.93 21.784C159.741 21.784 160.381 21.576 160.85 21.16C161.33 20.7333 161.57 20.1733 161.57 19.48C161.57 19.032 161.464 18.6693 161.25 18.392C161.048 18.1147 160.776 17.88 160.434 17.688C160.093 17.496 159.72 17.32 159.314 17.16C159.016 17.0427 158.744 16.9307 158.498 16.824C158.264 16.7173 158.072 16.6 157.922 16.472C157.784 16.3333 157.714 16.1787 157.714 16.008C157.714 15.8053 157.794 15.6507 157.954 15.544C158.114 15.4373 158.317 15.384 158.562 15.384C158.925 15.384 159.277 15.4747 159.618 15.656C159.96 15.8373 160.253 16.072 160.498 16.36L161.458 15.336C161.256 15.0907 161.01 14.872 160.722 14.68C160.434 14.488 160.109 14.3333 159.746 14.216C159.394 14.0987 159.016 14.04 158.61 14.04C158.162 14.04 157.741 14.1147 157.346 14.264C156.962 14.4027 156.653 14.6213 156.418 14.92C156.194 15.2187 156.082 15.592 156.082 16.04C156.082 16.4773 156.184 16.84 156.386 17.128C156.6 17.416 156.866 17.6507 157.186 17.832C157.517 18.0027 157.848 18.152 158.178 18.28C158.509 18.3973 158.797 18.5147 159.042 18.632C159.288 18.7387 159.48 18.872 159.618 19.032C159.757 19.1813 159.826 19.3627 159.826 19.576C159.826 19.8213 159.736 20.0133 159.554 20.152C159.384 20.2907 159.144 20.36 158.834 20.36C158.589 20.36 158.344 20.3173 158.098 20.232C157.853 20.136 157.608 19.9973 157.362 19.816C157.128 19.624 156.893 19.4 156.658 19.144Z" fill="rgb(255,255,255)" fill-rule="nonzero" />
		<rect id="Rectangle 50" width="15.163935" height="2.000000" x="5.054688" y="8.000000" fill="rgb(255,255,255)" />
		<rect id="Rectangle 51" width="20.218578" height="2.000000" x="0.000000" y="16.000000" fill="rgb(255,255,255)" />
		<rect id="Rectangle 52" width="15.163935" height="2.000000" x="0.000000" y="24.000000" fill="rgb(255,255,255)" />
		<rect id="Rectangle 61" width="1.010929" height="30.000000" x="183.989258" y="0.000000" opacity="0.100000001" fill="rgb(255,255,255)" />
	</g>
</svg>
