<svg viewBox="0 0 24.1316 22" xmlns="http://www.w3.org/2000/svg" xmlns:xlink="http://www.w3.org/1999/xlink" width="24.131592" height="22.000000" fill="none">
	<rect id="heart 1" width="24.131544" height="22.000000" x="0.000000" y="0.000000" fill="rgb(255,255,255)" fill-opacity="0" />
	<g id="Group">
		<path id="Vector" d="M16.0406 3.55371C18.886 3.55371 21.192 5.68841 21.192 8.67701C21.192 14.6542 14.1674 18.0698 11.8259 19.3506C9.48431 18.0698 2.45972 14.6542 2.45972 8.67701C2.45972 5.68841 4.80125 3.55371 7.61108 3.55371C9.35318 3.55371 10.8892 4.40759 11.8259 5.26147C12.7624 4.40759 14.2985 3.55371 16.0406 3.55371ZM12.7007 16.8777C13.5257 16.403 14.2704 15.9308 14.9673 15.4253C17.7593 13.4016 19.3187 11.19 19.3187 8.67701C19.3187 6.66184 17.8792 5.26147 16.0406 5.26147C15.0328 5.26147 13.9426 5.74818 13.1502 6.46886L11.8259 7.67625L10.5015 6.46886C9.7091 5.74818 8.61888 5.26147 7.61108 5.26147C5.79406 5.26147 4.33295 6.6755 4.33295 8.67701C4.33295 11.1909 5.89334 13.4016 8.68351 15.4253C9.38128 15.9308 10.1259 16.403 10.9511 16.8769C11.2311 17.0383 11.5083 17.1928 11.8259 17.3653C12.1433 17.1928 12.4206 17.0383 12.7007 16.8777Z" fill="rgb(255,255,255)" fill-rule="nonzero" />
	</g>
</svg>
