<svg viewBox="0 0 19.9241 20" xmlns="http://www.w3.org/2000/svg" xmlns:xlink="http://www.w3.org/1999/xlink" width="19.924072" height="20.000000" fill="none">
	<rect id="search 1" width="19.924021" height="20.000000" x="0.000000" y="0.000000" fill="rgb(255,255,255)" fill-opacity="0" />
	<g id="layer1">
		<path id="circle2017" d="M9.08146 1.60938C4.9649 1.60938 1.61157 4.97548 1.61157 9.10776C1.61157 13.24 4.9649 16.6127 9.08146 16.6127C10.8398 16.6127 12.4569 15.9941 13.7349 14.9671L16.8465 18.0889C17.0035 18.24 17.2132 18.3233 17.4307 18.3211C17.6482 18.3189 17.8562 18.2312 18.0101 18.0769C18.164 17.9227 18.2516 17.714 18.2541 17.4957C18.2567 17.2774 18.1739 17.0667 18.0236 16.9089L14.9121 13.7856C15.936 12.5006 16.553 10.8748 16.553 9.10776C16.553 4.97548 13.198 1.60938 9.08146 1.60938ZM9.08146 3.27607C12.3007 3.27607 14.891 5.87623 14.891 9.10776C14.891 12.3393 12.3007 14.946 9.08146 14.946C5.86221 14.946 3.27191 12.3393 3.27191 9.10776C3.27191 5.87623 5.86221 3.27607 9.08146 3.27607Z" fill="rgb(68.3652,49.663,150.875)" fill-rule="nonzero" />
	</g>
</svg>
